<?xml version="1.0" encoding="UTF-8"?>
<svg width="32px" height="32px" viewBox="0 0 32 32" version="1.1" xmlns="http://www.w3.org/2000/svg" xmlns:xlink="http://www.w3.org/1999/xlink">
    <!-- Generator: Sketch 51 (57462) - http://www.bohemiancoding.com/sketch -->
    <title>vk</title>
    <desc>Created with Sketch.</desc>
    <defs></defs>
    <g id="Page-1" stroke="none" stroke-width="1" fill="none" fill-rule="evenodd">
        <g id="Artboard" transform="translate(-400.000000, -92.000000)">
            <g id="vk" transform="translate(400.000000, 92.000000)">
                <path d="M16,0 C7.163,0 0,7.163 0,16 C0,24.836 7.163,32 16,32 C24.837,32 32,24.836 32,16 C32,7.163 24.837,0 16,0 Z" id="Shape-Copy" fill="#333333" fill-rule="nonzero"></path>
                <path d="M24.8360308,11.7448158 C24.9647019,11.3155263 24.8360308,11 24.2232151,11 L22.1968993,11 C21.6816361,11 21.444123,11.2725395 21.3153072,11.5730132 C21.3153072,11.5730132 20.2849256,14.0847763 18.8251098,15.71625 C18.3528335,16.1885263 18.1381887,16.3387632 17.8805572,16.3387632 C17.7517414,16.3387632 17.5653203,16.1885263 17.5653203,15.7592368 L17.5653203,11.7448158 C17.5653203,11.2295526 17.4158072,11 16.986373,11 L13.8021624,11 C13.480123,11 13.2864651,11.2391053 13.2864651,11.4657632 C13.2864651,11.9541053 14.016373,12.0668553 14.0916361,13.4406974 L14.0916361,16.4247368 C14.0916361,17.0789474 13.9735308,17.1976316 13.7158993,17.1976316 C13.0289782,17.1976316 11.3579914,14.6745789 10.3669782,11.7878026 C10.1727414,11.2266579 9.97792559,11 9.46005716,11 L7.43374138,11 C6.85479401,11 6.73900453,11.2725395 6.73900453,11.5730132 C6.73900453,12.1096974 7.42592559,14.7716974 9.93754401,18.2924211 C11.6120045,20.6966447 13.9712151,22 16.1179519,22 C17.4059651,22 17.5653203,21.7105263 17.5653203,21.2119079 L17.5653203,19.3947368 C17.5653203,18.8157895 17.6873335,18.7002895 18.0952019,18.7002895 C18.3956756,18.7002895 18.9109387,18.8505263 20.113123,20.0097237 C21.4871098,21.3837105 21.713623,22 22.486373,22 L24.5126887,22 C25.0916361,22 25.3811098,21.7105263 25.2140835,21.13925 C25.0314256,20.5698553 24.3753335,19.7438421 23.5050308,18.7646974 C23.0327545,18.2064474 22.3242677,17.6055 22.109623,17.3048816 C21.8090045,16.9184342 21.8949782,16.7466316 22.109623,16.4031711 C22.109623,16.4031711 24.5783993,12.9255789 24.8360308,11.7448158" id="Fill-7" fill="#FFFFFE"></path>
            </g>
        </g>
    </g>
</svg>