<?xml version="1.0" encoding="UTF-8"?>
<svg width="32px" height="32px" viewBox="0 0 32 32" version="1.1" xmlns="http://www.w3.org/2000/svg" xmlns:xlink="http://www.w3.org/1999/xlink">
    <!-- Generator: Sketch 51 (57462) - http://www.bohemiancoding.com/sketch -->
    <title>facebook online social media by alfredocreates copy</title>
    <desc>Created with Sketch.</desc>
    <defs></defs>
    <g id="Page-1" stroke="none" stroke-width="1" fill="none" fill-rule="evenodd">
        <g id="Artboard" transform="translate(-207.000000, -89.000000)">
            <g id="facebook-online-social-media-by-alfredocreates-copy" transform="translate(207.000000, 89.000000)">
                <g id="Flat">
                    <g id="Group">
                        <path d="M16,0 C7.163,0 0,7.163 0,16 C0,24.836 7.163,32 16,32 C24.837,32 32,24.836 32,16 C32,7.163 24.837,0 16,0 Z" id="Shape" fill="#333333" fill-rule="nonzero"></path>
                        <path d="M16,1.359 C7.914,1.359 1.359,7.914 1.359,16 C1.359,24.086 7.914,30.641 16,30.641 C24.086,30.641 30.641,24.086 30.641,16 C30.641,7.914 24.086,1.359 16,1.359 Z" id="Shape"></path>
                    </g>
                    <path d="M13.69,24.903 L17.369,24.903 L17.369,15.999 L19.823,15.999 L20.148,12.931 L17.369,12.931 L17.373,11.395 C17.373,10.595 17.449,10.166 18.597,10.166 L20.131,10.166 L20.131,7.097 L17.676,7.097 C14.727,7.097 13.69,8.586 13.69,11.089 L13.69,12.931 L11.852,12.931 L11.852,16 L13.69,16 L13.69,24.903 Z" id="Shape" fill="#FFFFFF" fill-rule="nonzero"></path>
                </g>
            </g>
        </g>
    </g>
</svg>