<?xml version="1.0" encoding="UTF-8"?>
<svg width="32px" height="32px" viewBox="0 0 32 32" version="1.1" xmlns="http://www.w3.org/2000/svg" xmlns:xlink="http://www.w3.org/1999/xlink">
    <!-- Generator: Sketch 51 (57462) - http://www.bohemiancoding.com/sketch -->
    <title>social media logo github by alfredocreates</title>
    <desc>Created with Sketch.</desc>
    <defs></defs>
    <g id="Page-1" stroke="none" stroke-width="1" fill="none" fill-rule="evenodd">
        <g id="Artboard" transform="translate(-122.000000, -90.000000)" fill-rule="nonzero">
            <g id="social-media-logo-github-by-alfredocreates" transform="translate(122.000000, 90.000000)">
                <g id="Layer_3">
                    <path d="M16,0 C7.1635,0 0,7.1635 0,16 C0,24.8365 7.1635,32 16,32 C24.8365,32 32,24.8365 32,16 C32,7.1635 24.8365,0 16,0 Z" id="Shape" fill="#333333"></path>
                    <g id="Outline_Filled" transform="translate(8.000000, 6.500000)" fill="#FFFFFF">
                        <path d="M11.296,18.583 L8.876,18.583 L6.454,18.583 C6.454,18.583 6.461,17.146 6.454,16.161 C3.1395,16.875 2.2145,14.3445 2.2145,14.3445 C1.6095,13.133 1.003,12.528 1.003,12.528 C-0.2085,11.809 1.003,11.923 1.003,11.923 C2.2145,11.923 2.8195,13.1345 2.8195,13.1345 C3.8825,14.939 5.7735,14.6485 6.4525,14.346 C6.4525,13.741 6.7175,12.825 7.0575,12.5295 C4.4125,12.232 2.211,10.713 2.211,7.685 C2.211,4.657 2.819,4.052 3.4245,3.4455 C3.3025,3.147 2.795,2.043 3.443,0.4175 C3.443,0.4175 4.633,0.4175 5.8445,2.234 C6.4445,1.634 8.2665,1.629 8.8725,1.629 C9.4765,1.629 11.2995,1.634 11.8995,2.234 C13.111,0.4175 14.304,0.4175 14.304,0.4175 C14.952,2.043 14.445,3.147 14.3225,3.4455 C14.9275,4.0505 15.534,4.657 15.534,7.685 C15.534,10.713 13.3355,12.231 10.6895,12.5295 C11.0305,12.825 11.2945,13.867 11.2945,14.346 L11.296,18.583 Z" id="Cat_3_"></path>
                    </g>
                </g>
            </g>
        </g>
    </g>
</svg>